# xmcd CD database file
#
# Track frame offsets:
#	150
#	16003
#	26193
#	36175
#	45837
#	59892
#	74624
#	88557
#	101383
#	118449
#	128913
#	142104
#	157024
#	170704
#	180873
#	193039
#	202797
#
# Disc length: 2896 seconds
#
# Revision: 2
# Processed by: cddbd v1.5.2PL0 Copyright (c) Steve Scherf et al.
# Submitted via: jetAudio 5
#
DISCID=f10b4e11
DTITLE=Various Artist - Jewels Deel 1
DYEAR=1900
DGENRE=
TTITLE0=You ' re Still The One - Twain Lange
TTITLE1=I Love You Because - Payne
TTITLE2=Every Cowboys Dream - Akins Boudreaux Williams
TTITLE3=Seven Longely Days - Brown Shuman
TTITLE4=Love On The Loose, Heart On The Run - Kostas Graham
TTITLE5=Every Time I Get Around You - Murphy
TTITLE6=I'II Give You Something To Drink About - Cochran Laseter
TTITLE7=There Goes My Everthing - Murray
TTITLE8=You Better Think Twice - Gill Nielsen
TTITLE9=Help Me Make It Through The Night - Kristofferson
TTITLE10=Blame It On Texas - Wright Rogers
TTITLE11=Youn At Heart - Hodgens Fahey
TTITLE12=Draggin My Chains - Carvis
TTITLE13=Bad Moon Rising - Fogerty
TTITLE14=It's A Little Too Late - Chesnutt Springer Morrisette
TTITLE15=From A Jack To A King - Miller
TTITLE16=I Want To Live Again - Shapiro Teren
EXTD=
EXTT0=
EXTT1=
EXTT2=
EXTT3=
EXTT4=
EXTT5=
EXTT6=
EXTT7=
EXTT8=
EXTT9=
EXTT10=
EXTT11=
EXTT12=
EXTT13=
EXTT14=
EXTT15=
EXTT16=
PLAYORDER=
